# AST/ASF file generated using VICON BodyLanguage
# -----------------------------------------------
:version 1.10
:name VICON
:units
  mass 1.0
  length 0.45
  angle deg
:documentation
   .ast/.asf automatically generated from VICON data using
   VICON BodyBuilder and BodyLanguage model FoxedUp or BRILLIANT.MOD
:root
   order TX TY TZ RX RY RZ
   axis XYZ
   position 0 0 0  
   orientation 0 0 0 
:bonedata
  begin
     id 1 
     name lhipjoint
     direction 0.543289 -0.788407 0.288535 
     length 2.57127 
     axis 0 0 0  XYZ
  end
  begin
     id 2 
     name lfemur
     direction 0.34202 -0.939693 0  
     length 8.47298  
     axis 0 0 20  XYZ
    dof rx ry rz
    limits (-160.0 20.0)
           (-70.0 70.0)
           (-60.0 70.0)
  end
  begin
     id 3 
     name ltibia
     direction 0.34202 -0.939693 0   
     length 8.13367   
     axis 0 0 20   XYZ
    dof rx
    limits (-10.0 170.0)
  end
  begin
     id 4 
     name lfoot
     direction 0.114037 -0.313314 0.942778   
     length 2.67113   
     axis -90 7.62852e-016 20   XYZ
    dof rx rz
    limits (-45.0 90.0)
           (-70.0 20.0)
  end
  begin
     id 5 
     name ltoes
     direction 1.536e-011 -4.21847e-011 1   
     length 1.32217   
     axis -90 7.62852e-016 20   XYZ
    dof rx
    limits (-90.0 20.0)
  end
  begin
     id 6 
     name rhipjoint
     direction -0.571293 -0.770752 0.282074   
     length 2.63017  
     axis 0 0 0  XYZ 
  end
  begin
     id 7 
     name rfemur
     direction -0.34202 -0.939693 0   
     length 8.60885   
     axis 0 0 -20   XYZ
    dof rx ry rz
    limits (-160.0 20.0)
           (-70.0 70.0)
           (-70.0 60.0)
  end
  begin
     id 8 
     name rtibia
     direction -0.34202 -0.939693 0   
     length 8.07673   
     axis 0 0 -20   XYZ
    dof rx
    limits (-10.0 170.0)
 end
 begin
     id 9 
     name rfoot
     direction -0.121336 -0.333368 0.934956   
     length 2.81602  
     axis -90 -7.62852e-016 -20   XYZ
    dof rx rz
    limits (-45.0 90.0)
           (-20.0 70.0)
  end
  begin
     id 10 
     name rtoes
     direction -1.53491e-011 -4.21808e-011 1   
     length 1.38905   
     axis -90 -7.62852e-016 -20   XYZ
    dof rx
    limits (-90.0 20.0)
  end
  begin
     id 11 
     name lowerback
     direction 0.0136776 0.999869 -0.00861835   
     length 2.14087   
     axis 0 0 0   XYZ
    dof rx ry rz
    limits (-20.0 45.0)
           (-30.0 30.0)
           (-30.0 30.0)
  end
  begin
     id 12 
     name upperback
     direction -0.00789158 0.999804 0.0181308   
     length 2.14151   
     axis 0 0 0   XYZ
    dof rx ry rz
    limits (-20.0 45.0)
           (-30.0 30.0)
           (-30.0 30.0)
  end
  begin
     id 13 
     name thorax
     direction -0.0135231 0.999666 0.0220247   
     length 2.13644   
     axis 0 0 0   XYZ
    dof rx ry rz
    limits (-20.0 45.0)
           (-30.0 30.0)
           (-30.0 30.0)
  end
  begin
     id 14 
     name lowerneck
     direction -0.0392259 0.997317 0.0618018   
     length 1.65045   
     axis 0 0 0   XYZ
    dof rx ry rz
    limits (-20.0 45.0)
           (-30.0 30.0)
           (-30.0 30.0)
  end
  begin
     id 15 
     name upperneck
     direction 0.0765547 0.994276 -0.0745319   
     length 1.66045   
     axis 0 0 0   XYZ
    dof rx ry rz
    limits (-20.0 45.0)
           (-30.0 30.0)
           (-30.0 30.0)
  end
  begin
     id 16
     name head
     direction 0.0241564 0.999031 -0.036785  
     length 1.66594  
     axis 0 0 0   XYZ
    dof rx ry rz
    limits (-20.0 45.0)
           (-30.0 30.0)
           (-30.0 30.0)
  end
  begin
     id 17 
     name lclavicle
     direction 0.967398 0.249018 0.0461573  
     length 3.75176  
     axis 0 0 0   XYZ
    dof ry rz
    limits (-20.0 10.0)
           (0.0 20.0)
  end
  begin
     id 18 
     name lhumerus
     direction 1 -4.48963e-011 -3.05005e-027   
     length 5.93342   
     axis 180 -30 -90   XYZ
    dof rx ry rz
    limits (-60.0 90.0)
           (-90.0 90.0)
           (-90.0 90.0)
  end
  begin
     id 19
     name lradius
     direction 1 -4.48957e-011 1.07006e-026   
     length 3.94763   
     axis 180 -30 -90   XYZ
    dof rx
    limits (-10.0 170.0)
  end
  begin
     id 20
     name lwrist
     direction 1 -4.48978e-011 1.92422e-026   
     length 1.97382   
     axis -1.18182e-014 90 90   XYZ
    dof ry
    limits (-180.0 0.0)
 end
  begin
     id 21 
     name lhand
     direction 1 -4.48931e-011 3.84844e-026   
     length 0.560187   
     axis -2.45563e-014 90 90   XYZ
    dof rx rz
    limits (-90.0 90.0)
           (-45.0 45.0)
  end
  begin
     id 22 
     name lfingers
     direction 1 -4.48952e-011 7.69687e-026   
     length 0.451637   
     axis -4.91126e-014 90 90   XYZ
    dof rx
    limits (0.0 90.0)
  end
  begin
     id 23
     name lthumb
     direction 0.707107 -6.34901e-011 0.707107   
     length 0.648463   
     axis -90 45 2.85299e-015   XYZ
    dof rx rz
    limits (-45.0 45.0)
           (-45.0 45.0)
  end
  begin
     id 24 
     name rclavicle
     direction -0.965946 0.258716 0.00371831   
     length 3.63667  
     axis 0 0 0   XYZ 
    dof ry rz
    limits (-10.0 20.0)
           (-20.0 0.0)
  end
  begin
     id 25 
     name rhumerus
     direction -1 -4.48966e-011 -1.78361e-028  
     length 6.28647   
     axis 180 30 90   XYZ
    dof rx ry rz
    limits (-90.0 60.0)
           (-90.0 90.0)
           (-90.0 90.0)
  end
  begin
     id 26 
     name rradius
     direction -1 -4.48961e-011 1.05248e-026   
     length 3.81645   
     axis 180 30 90   XYZ
    dof rx
    limits (-10.0 170.0)
  end
  begin
     id 27 
     name rwrist
     direction -1 -4.48979e-011 1.92422e-026   
     length 1.90822   
     axis -1.18182e-014 -90 -90   XYZ
    dof ry
    limits (-180.0 0.0)
  end
  begin
     id 28
     name rhand
     direction -1 -4.48937e-011 3.84844e-026   
     length 0.646185   
     axis -2.45563e-014 -90 -90   XYZ
    dof rx rz
    limits (-90.0 90.0)
           (-45.0 45.0)
  end
  begin
     id 29
     name rfingers
     direction -1 -4.48953e-011 7.69687e-026   
     length 0.520971   
     axis -4.91126e-014 -90 -90   XYZ
    dof rx
    limits (0.0 90.0)
  end
  begin
     id 30
     name rthumb
     direction -0.707107 -6.3494e-011 0.707107   
     length 0.748013   
     axis -90 -45 -2.85299e-015   XYZ
    dof rx rz
    limits (-45.0 45.0)
           (-45.0 45.0)
  end
:hierarchy
  begin
    root lhipjoint rhipjoint lowerback
    lhipjoint lfemur
    lfemur ltibia
    ltibia lfoot
    lfoot ltoes
    rhipjoint rfemur
    rfemur rtibia
    rtibia rfoot
    rfoot rtoes
    lowerback upperback
    upperback thorax
    thorax lowerneck lclavicle rclavicle
    lowerneck upperneck
    upperneck head
    lclavicle lhumerus
    lhumerus lradius
    lradius lwrist
    lwrist lhand lthumb
    lhand lfingers
    rclavicle rhumerus
    rhumerus rradius
    rradius rwrist
    rwrist rhand rthumb
    rhand rfingers
  end

#!OML:ASF H:\HAZMAT1\Patient Classification 1\Patient 3\Session 1\dancer.ASF
:FULLY-SPECIFIED
:DEGREES
90
upperback 1.174780 -4.874500 -1.808140
rfoot -21.560600 -9.647020
lradius 20.543900
lthumb 23.197100 48.826000
rradius 34.392300
lwrist -18.087400
rhand -18.407801 -27.622101
rhumerus -29.816299 5.581740 -58.235001
lowerneck -8.528870 2.484640 4.076300
lhand -2.496500 20.202999
ltibia 94.749802
head 8.070940 1.627330 -1.261440
rwrist 11.514100
lfingers 7.125020
rtoes 9.047170
lowerback 3.947400 -3.723930 2.745570
rfingers 7.125020
lclavicle 0.000000 -0.000000
upperneck 21.211500 3.311010 -2.677910
rfemur -39.734299 -0.429845 24.995501
thorax -1.385320 -2.442050 -3.131330
rclavicle 0.000000 -0.000000
rtibia 52.020302
lfoot 25.940800 27.457001
lhumerus -42.576500 7.766140 49.597000
rthumb 7.876780 -57.455299
root -0.759717 18.398199 35.852001 -349.842987 8.088500 356.174988
ltoes 41.168800
lfemur -61.033001 -14.002600 -11.750800
91
upperback -0.193294 -8.465760 -0.579819
rfoot -22.054600 -20.140900
lradius 48.275002
lthumb 19.921900 46.483398
rradius 36.640900
lwrist -6.321510
rhand -19.295601 -27.627199
rhumerus -47.409500 -1.625690 -55.213600
lowerneck -6.529450 10.973600 10.380200
lhand -5.906850 17.484501
ltibia 51.112099
head 9.263290 7.495220 -2.609130
rwrist 11.396500
lfingers 7.125020
rtoes 7.801660
lowerback -0.298755 -6.337690 5.778910
rfingers 7.125020
lclavicle -0.000000 0.000000
upperneck 21.517401 15.583500 -7.727270
rfemur -48.373699 -22.278000 24.429800
thorax -0.952323 -4.266340 -3.679940
rclavicle -0.000000 0.000000
rtibia 56.907001
lfoot -4.552740 37.110100
lhumerus -32.231098 -29.346600 68.791397
rthumb 7.019800 -57.490799
root -1.129150 18.158001 34.247002 -346.630005 43.040298 358.565002
ltoes 28.969900
lfemur -19.391001 5.139400 1.749160
92
upperback -0.115762 -9.887620 2.476440
rfoot -12.579000 -47.052700
lradius 67.658997
lthumb 24.373600 36.305901
rradius 25.115000
lwrist 0.455652
rhand -16.761801 -26.056000
rhumerus -65.821800 -7.413360 -52.275600
lowerneck -5.576910 8.456090 9.236830
lhand -1.269820 7.836020
ltibia 41.601601
head 9.982180 6.440770 -2.339700
rwrist 15.202100
lfingers 7.125020
rtoes 10.753400
lowerback -3.614070 -7.171110 9.319900
rfingers 7.125020
lclavicle 0.000000 0.000000
upperneck 25.391399 12.822900 -6.374380
rfemur -11.443100 -16.106400 -0.901355
thorax 0.767833 -4.862500 -2.872860
rclavicle 0.000000 0.000000
rtibia 45.638000
lfoot -14.303100 22.229401
lhumerus -7.253970 -55.844002 75.637398
rthumb 9.465220 -55.823399
root -0.471863 18.617701 31.330500 -186.910995 79.612396 526.210999
ltoes 10.508500
lfemur -30.540300 7.537460 -11.935500
93
upperback 0.599979 -12.976200 2.217940
rfoot 29.325300 -10.250300
lradius 73.575500
lthumb 27.262300 36.586800
rradius 22.561501
lwrist 12.311000
rhand -15.922400 -25.507999
rhumerus -67.687202 -6.259680 -49.006401
lowerneck -6.333670 8.411750 7.037080
lhand 1.746710 8.537360
ltibia 34.341900
head 9.595450 6.556850 -2.235160
rwrist 16.539101
lfingers 7.125020
rtoes 32.479198
lowerback -1.890910 -9.660540 6.172130
rfingers 7.125020
lclavicle 0.000000 -0.000000
upperneck 23.999001 13.505800 -7.450790
rfemur -30.704201 4.700010 9.418100
thorax 0.831719 -6.406920 -1.298620
rclavicle 0.000000 -0.000000
rtibia 104.512001
lfoot -7.549330 10.368900
lhumerus 13.651200 -55.000599 61.052898
rthumb 10.275000 -55.237099
root -0.086106 19.134001 29.355499 -181.690994 40.609200 535.268982
ltoes 6.915300
lfemur -24.993900 -11.333100 -22.081301
